ply
format ascii 1.0
comment : MagicaVoxel @ Ephtracy
element vertex 260
property float x
property float y
property float z
property uchar red
property uchar green
property uchar blue
end_header
1 1 0 170 170 170
2 1 0 170 170 170
3 1 0 170 170 170
4 1 0 170 170 170
5 1 0 170 170 170
6 1 0 170 170 170
7 1 0 170 170 170
8 1 0 170 170 170
9 1 0 170 170 170
10 1 0 170 170 170
11 1 0 170 170 170
12 1 0 170 170 170
13 1 0 170 170 170
14 1 0 170 170 170
1 2 0 170 170 170
2 2 0 170 170 170
3 2 0 170 170 170
4 2 0 170 170 170
5 2 0 170 170 170
6 2 0 170 170 170
7 2 0 170 170 170
8 2 0 170 170 170
9 2 0 170 170 170
10 2 0 170 170 170
11 2 0 170 170 170
12 2 0 170 170 170
13 2 0 170 170 170
14 2 0 170 170 170
1 3 0 170 170 170
2 3 0 170 170 170
3 3 0 170 170 170
4 3 0 170 170 170
5 3 0 170 170 170
6 3 0 170 170 170
7 3 0 170 170 170
8 3 0 170 170 170
9 3 0 170 170 170
10 3 0 170 170 170
11 3 0 170 170 170
12 3 0 170 170 170
13 3 0 170 170 170
14 3 0 170 170 170
1 4 0 170 170 170
2 4 0 170 170 170
3 4 0 170 170 170
4 4 0 170 170 170
5 4 0 170 170 170
6 4 0 170 170 170
7 4 0 170 170 170
8 4 0 170 170 170
9 4 0 170 170 170
10 4 0 170 170 170
11 4 0 170 170 170
12 4 0 170 170 170
13 4 0 170 170 170
14 4 0 170 170 170
1 5 0 170 170 170
2 5 0 170 170 170
3 5 0 170 170 170
4 5 0 170 170 170
5 5 0 0 0 119
6 5 0 0 0 119
7 5 0 0 0 119
8 5 0 0 0 119
9 5 0 0 0 119
10 5 0 0 0 119
11 5 0 170 170 170
12 5 0 170 170 170
13 5 0 170 170 170
14 5 0 170 170 170
1 6 0 170 170 170
2 6 0 170 170 170
3 6 0 170 170 170
4 6 0 170 170 170
5 6 0 0 0 119
10 6 0 0 0 119
11 6 0 170 170 170
12 6 0 170 170 170
13 6 0 170 170 170
14 6 0 170 170 170
1 7 0 170 170 170
2 7 0 170 170 170
3 7 0 170 170 170
4 7 0 170 170 170
5 7 0 0 0 119
10 7 0 0 0 119
11 7 0 170 170 170
12 7 0 170 170 170
13 7 0 170 170 170
14 7 0 170 170 170
1 8 0 170 170 170
2 8 0 170 170 170
3 8 0 170 170 170
4 8 0 170 170 170
5 8 0 0 0 119
10 8 0 0 0 119
11 8 0 170 170 170
12 8 0 170 170 170
13 8 0 170 170 170
14 8 0 170 170 170
1 9 0 170 170 170
2 9 0 170 170 170
3 9 0 170 170 170
4 9 0 170 170 170
5 9 0 0 0 119
10 9 0 0 0 119
11 9 0 170 170 170
12 9 0 170 170 170
13 9 0 170 170 170
14 9 0 170 170 170
1 10 0 170 170 170
2 10 0 170 170 170
3 10 0 170 170 170
4 10 0 170 170 170
5 10 0 0 0 119
6 10 0 0 0 119
7 10 0 0 0 119
8 10 0 0 0 119
9 10 0 0 0 119
10 10 0 0 0 119
11 10 0 170 170 170
12 10 0 170 170 170
13 10 0 170 170 170
14 10 0 170 170 170
1 11 0 170 170 170
2 11 0 170 170 170
3 11 0 170 170 170
4 11 0 170 170 170
5 11 0 170 170 170
6 11 0 170 170 170
7 11 0 170 170 170
8 11 0 170 170 170
9 11 0 170 170 170
10 11 0 170 170 170
11 11 0 170 170 170
12 11 0 170 170 170
13 11 0 170 170 170
14 11 0 170 170 170
1 12 0 170 170 170
2 12 0 170 170 170
3 12 0 170 170 170
4 12 0 170 170 170
5 12 0 170 170 170
6 12 0 170 170 170
7 12 0 170 170 170
8 12 0 170 170 170
9 12 0 170 170 170
10 12 0 170 170 170
11 12 0 170 170 170
12 12 0 170 170 170
13 12 0 170 170 170
14 12 0 170 170 170
1 13 0 170 170 170
2 13 0 170 170 170
3 13 0 170 170 170
4 13 0 170 170 170
5 13 0 170 170 170
6 13 0 170 170 170
7 13 0 170 170 170
8 13 0 170 170 170
9 13 0 170 170 170
10 13 0 170 170 170
11 13 0 170 170 170
12 13 0 170 170 170
13 13 0 170 170 170
14 13 0 170 170 170
1 14 0 170 170 170
2 14 0 170 170 170
3 14 0 170 170 170
4 14 0 170 170 170
5 14 0 170 170 170
6 14 0 170 170 170
7 14 0 170 170 170
8 14 0 170 170 170
9 14 0 170 170 170
10 14 0 170 170 170
11 14 0 170 170 170
12 14 0 170 170 170
13 14 0 170 170 170
14 14 0 170 170 170
1 0 1 221 0 0
2 0 1 221 0 0
3 0 1 221 0 0
4 0 1 221 0 0
5 0 1 221 0 0
6 0 1 221 0 0
7 0 1 221 0 0
8 0 1 221 0 0
9 0 1 221 0 0
10 0 1 221 0 0
11 0 1 221 0 0
12 0 1 221 0 0
13 0 1 221 0 0
14 0 1 221 0 0
0 1 1 221 0 0
15 1 1 221 0 0
0 2 1 221 0 0
15 2 1 221 0 0
0 3 1 221 0 0
15 3 1 221 0 0
0 4 1 221 0 0
15 4 1 221 0 0
0 5 1 221 0 0
15 5 1 221 0 0
0 6 1 221 0 0
15 6 1 221 0 0
0 7 1 221 0 0
15 7 1 221 0 0
0 8 1 221 0 0
15 8 1 221 0 0
0 9 1 221 0 0
15 9 1 221 0 0
0 10 1 221 0 0
15 10 1 221 0 0
0 11 1 221 0 0
15 11 1 221 0 0
0 12 1 221 0 0
15 12 1 221 0 0
0 13 1 221 0 0
15 13 1 221 0 0
0 14 1 221 0 0
15 14 1 221 0 0
1 15 1 221 0 0
2 15 1 221 0 0
3 15 1 221 0 0
4 15 1 221 0 0
5 15 1 221 0 0
6 15 1 221 0 0
7 15 1 221 0 0
8 15 1 221 0 0
9 15 1 221 0 0
10 15 1 221 0 0
11 15 1 221 0 0
12 15 1 221 0 0
13 15 1 221 0 0
14 15 1 221 0 0
1 0 2 221 0 0
14 0 2 221 0 0
0 1 2 221 0 0
15 1 2 221 0 0
0 14 2 221 0 0
15 14 2 221 0 0
1 15 2 221 0 0
14 15 2 221 0 0
1 0 3 221 0 0
14 0 3 221 0 0
0 1 3 221 0 0
15 1 3 221 0 0
0 14 3 221 0 0
15 14 3 221 0 0
1 15 3 221 0 0
14 15 3 221 0 0
1 0 4 221 0 0
14 0 4 221 0 0
0 1 4 221 0 0
15 1 4 221 0 0
0 14 4 221 0 0
15 14 4 221 0 0
1 15 4 221 0 0
14 15 4 221 0 0
