ply
format ascii 1.0
comment : MagicaVoxel @ Ephtracy
element vertex 302
property float x
property float y
property float z
property uchar red
property uchar green
property uchar blue
end_header
-2 -2 -2 76 153 178
-1 -2 -2 76 153 178
0 -2 -2 76 153 178
1 -2 -2 76 153 178
-2 -1 -2 76 153 178
-1 -1 -2 76 153 178
0 -1 -2 76 153 178
1 -1 -2 76 153 178
-2 0 -2 76 153 178
-1 0 -2 76 153 178
0 0 -2 76 153 178
1 0 -2 76 153 178
-2 1 -2 76 153 178
-1 1 -2 76 153 178
0 1 -2 76 153 178
1 1 -2 76 153 178
-2 -7 -1 229 127 216
-1 -7 -1 229 127 216
0 -7 -1 229 127 216
1 -7 -1 229 127 216
-3 -6 -1 229 127 216
-2 -6 -1 229 127 216
-1 -6 -1 229 127 216
0 -6 -1 229 127 216
1 -6 -1 229 127 216
2 -6 -1 229 127 216
-4 -5 -1 229 127 216
-3 -5 -1 229 127 216
-2 -5 -1 229 127 216
-1 -5 -1 229 127 216
0 -5 -1 229 127 216
1 -5 -1 229 127 216
2 -5 -1 229 127 216
3 -5 -1 229 127 216
-5 -4 -1 229 127 216
-4 -4 -1 229 127 216
-3 -4 -1 229 127 216
-2 -4 -1 229 127 216
-1 -4 -1 229 127 216
0 -4 -1 229 127 216
1 -4 -1 229 127 216
2 -4 -1 229 127 216
3 -4 -1 229 127 216
4 -4 -1 229 127 216
-6 -3 -1 229 127 216
-5 -3 -1 229 127 216
-4 -3 -1 229 127 216
-3 -3 -1 229 127 216
-2 -3 -1 229 127 216
-1 -3 -1 229 127 216
0 -3 -1 229 127 216
1 -3 -1 229 127 216
2 -3 -1 229 127 216
3 -3 -1 229 127 216
4 -3 -1 229 127 216
5 -3 -1 229 127 216
-7 -2 -1 229 127 216
-6 -2 -1 229 127 216
-5 -2 -1 229 127 216
-4 -2 -1 229 127 216
-3 -2 -1 229 127 216
-2 -2 -1 76 153 178
-1 -2 -1 76 153 178
0 -2 -1 76 153 178
1 -2 -1 76 153 178
2 -2 -1 229 127 216
3 -2 -1 229 127 216
4 -2 -1 229 127 216
5 -2 -1 229 127 216
6 -2 -1 229 127 216
-7 -1 -1 229 127 216
-6 -1 -1 229 127 216
-5 -1 -1 229 127 216
-4 -1 -1 229 127 216
-3 -1 -1 229 127 216
-2 -1 -1 76 153 178
-1 -1 -1 76 153 178
0 -1 -1 76 153 178
1 -1 -1 76 153 178
2 -1 -1 229 127 216
3 -1 -1 229 127 216
4 -1 -1 229 127 216
5 -1 -1 229 127 216
6 -1 -1 229 127 216
-7 0 -1 229 127 216
-6 0 -1 229 127 216
-5 0 -1 229 127 216
-4 0 -1 229 127 216
-3 0 -1 229 127 216
-2 0 -1 76 153 178
-1 0 -1 76 153 178
0 0 -1 76 153 178
1 0 -1 76 153 178
2 0 -1 229 127 216
3 0 -1 229 127 216
4 0 -1 229 127 216
5 0 -1 229 127 216
6 0 -1 229 127 216
-7 1 -1 229 127 216
-6 1 -1 229 127 216
-5 1 -1 229 127 216
-4 1 -1 229 127 216
-3 1 -1 229 127 216
-2 1 -1 76 153 178
-1 1 -1 76 153 178
0 1 -1 76 153 178
1 1 -1 76 153 178
2 1 -1 229 127 216
3 1 -1 229 127 216
4 1 -1 229 127 216
5 1 -1 229 127 216
6 1 -1 229 127 216
-6 2 -1 229 127 216
-5 2 -1 229 127 216
-4 2 -1 229 127 216
-3 2 -1 229 127 216
-2 2 -1 229 127 216
-1 2 -1 229 127 216
0 2 -1 229 127 216
1 2 -1 229 127 216
2 2 -1 229 127 216
3 2 -1 229 127 216
4 2 -1 229 127 216
5 2 -1 229 127 216
-5 3 -1 229 127 216
-4 3 -1 229 127 216
-3 3 -1 229 127 216
-2 3 -1 229 127 216
-1 3 -1 229 127 216
0 3 -1 229 127 216
1 3 -1 229 127 216
2 3 -1 229 127 216
3 3 -1 229 127 216
4 3 -1 229 127 216
-4 4 -1 229 127 216
-3 4 -1 229 127 216
-2 4 -1 229 127 216
-1 4 -1 229 127 216
0 4 -1 229 127 216
1 4 -1 229 127 216
2 4 -1 229 127 216
3 4 -1 229 127 216
-3 5 -1 229 127 216
-2 5 -1 229 127 216
-1 5 -1 229 127 216
0 5 -1 229 127 216
1 5 -1 229 127 216
2 5 -1 229 127 216
-2 6 -1 229 127 216
-1 6 -1 229 127 216
0 6 -1 229 127 216
1 6 -1 229 127 216
-2 -7 0 242 178 51
-1 -7 0 242 178 51
0 -7 0 242 178 51
1 -7 0 242 178 51
-3 -6 0 242 178 51
-2 -6 0 242 178 51
-1 -6 0 242 178 51
0 -6 0 242 178 51
1 -6 0 242 178 51
2 -6 0 242 178 51
-4 -5 0 242 178 51
-3 -5 0 242 178 51
-2 -5 0 242 178 51
-1 -5 0 242 178 51
0 -5 0 242 178 51
1 -5 0 242 178 51
2 -5 0 242 178 51
3 -5 0 242 178 51
-5 -4 0 242 178 51
-4 -4 0 242 178 51
-3 -4 0 242 178 51
-2 -4 0 242 178 51
-1 -4 0 242 178 51
0 -4 0 242 178 51
1 -4 0 242 178 51
2 -4 0 242 178 51
3 -4 0 242 178 51
4 -4 0 242 178 51
-6 -3 0 242 178 51
-5 -3 0 242 178 51
-4 -3 0 242 178 51
-3 -3 0 242 178 51
-2 -3 0 242 178 51
-1 -3 0 242 178 51
0 -3 0 242 178 51
1 -3 0 242 178 51
2 -3 0 242 178 51
3 -3 0 242 178 51
4 -3 0 242 178 51
5 -3 0 242 178 51
-7 -2 0 242 178 51
-6 -2 0 242 178 51
-5 -2 0 242 178 51
-4 -2 0 242 178 51
-3 -2 0 242 178 51
-2 -2 0 76 153 178
-1 -2 0 76 153 178
0 -2 0 76 153 178
1 -2 0 76 153 178
2 -2 0 242 178 51
3 -2 0 242 178 51
4 -2 0 242 178 51
5 -2 0 242 178 51
6 -2 0 242 178 51
-7 -1 0 242 178 51
-6 -1 0 242 178 51
-5 -1 0 242 178 51
-4 -1 0 242 178 51
-3 -1 0 242 178 51
-2 -1 0 76 153 178
-1 -1 0 76 153 178
0 -1 0 76 153 178
1 -1 0 76 153 178
2 -1 0 242 178 51
3 -1 0 242 178 51
4 -1 0 242 178 51
5 -1 0 242 178 51
6 -1 0 242 178 51
-7 0 0 242 178 51
-6 0 0 242 178 51
-5 0 0 242 178 51
-4 0 0 242 178 51
-3 0 0 242 178 51
-2 0 0 76 153 178
-1 0 0 76 153 178
0 0 0 76 153 178
1 0 0 76 153 178
2 0 0 242 178 51
3 0 0 242 178 51
4 0 0 242 178 51
5 0 0 242 178 51
6 0 0 242 178 51
-7 1 0 242 178 51
-6 1 0 242 178 51
-5 1 0 242 178 51
-4 1 0 242 178 51
-3 1 0 242 178 51
-2 1 0 76 153 178
-1 1 0 76 153 178
0 1 0 76 153 178
1 1 0 76 153 178
2 1 0 242 178 51
3 1 0 242 178 51
4 1 0 242 178 51
5 1 0 242 178 51
6 1 0 242 178 51
-6 2 0 242 178 51
-5 2 0 242 178 51
-4 2 0 242 178 51
-3 2 0 242 178 51
-2 2 0 242 178 51
-1 2 0 242 178 51
0 2 0 242 178 51
1 2 0 242 178 51
2 2 0 242 178 51
3 2 0 242 178 51
4 2 0 242 178 51
5 2 0 242 178 51
-5 3 0 242 178 51
-4 3 0 242 178 51
-3 3 0 242 178 51
-2 3 0 242 178 51
-1 3 0 242 178 51
0 3 0 242 178 51
1 3 0 242 178 51
2 3 0 242 178 51
3 3 0 242 178 51
4 3 0 242 178 51
-4 4 0 242 178 51
-3 4 0 242 178 51
-2 4 0 242 178 51
-1 4 0 242 178 51
0 4 0 242 178 51
1 4 0 242 178 51
2 4 0 242 178 51
3 4 0 242 178 51
-3 5 0 242 178 51
-2 5 0 242 178 51
-1 5 0 242 178 51
0 5 0 242 178 51
1 5 0 242 178 51
2 5 0 242 178 51
-2 6 0 242 178 51
-1 6 0 242 178 51
0 6 0 242 178 51
1 6 0 242 178 51
-1 -2 1 76 153 178
0 -2 1 76 153 178
1 -2 1 76 153 178
-2 -1 1 76 153 178
-1 -1 1 76 153 178
0 -1 1 76 153 178
1 -1 1 76 153 178
-2 0 1 76 153 178
-1 0 1 76 153 178
0 0 1 76 153 178
1 0 1 76 153 178
-1 1 1 76 153 178
0 1 1 76 153 178
1 1 1 76 153 178
