ply
format ascii 1.0
comment : MagicaVoxel @ Ephtracy
element vertex 300
property float x
property float y
property float z
property uchar red
property uchar green
property uchar blue
end_header
-2 -7 0 229 127 216
-1 -7 0 229 127 216
0 -7 0 229 127 216
1 -7 0 229 127 216
-3 -6 0 229 127 216
-2 -6 0 229 127 216
-1 -6 0 229 127 216
0 -6 0 229 127 216
1 -6 0 229 127 216
2 -6 0 229 127 216
-4 -5 0 229 127 216
-3 -5 0 229 127 216
-2 -5 0 229 127 216
-1 -5 0 229 127 216
0 -5 0 229 127 216
1 -5 0 229 127 216
2 -5 0 229 127 216
3 -5 0 229 127 216
-5 -4 0 229 127 216
-4 -4 0 229 127 216
-3 -4 0 229 127 216
-2 -4 0 229 127 216
-1 -4 0 229 127 216
0 -4 0 229 127 216
1 -4 0 229 127 216
2 -4 0 229 127 216
3 -4 0 229 127 216
4 -4 0 229 127 216
-6 -3 0 229 127 216
-5 -3 0 229 127 216
-4 -3 0 229 127 216
-3 -3 0 229 127 216
-2 -3 0 229 127 216
-1 -3 0 229 127 216
0 -3 0 229 127 216
1 -3 0 229 127 216
2 -3 0 229 127 216
3 -3 0 229 127 216
4 -3 0 229 127 216
5 -3 0 229 127 216
-7 -2 0 229 127 216
-6 -2 0 229 127 216
-5 -2 0 229 127 216
-4 -2 0 229 127 216
-3 -2 0 229 127 216
-2 -2 0 76 153 178
-1 -2 0 76 153 178
0 -2 0 76 153 178
1 -2 0 76 153 178
2 -2 0 229 127 216
3 -2 0 229 127 216
4 -2 0 229 127 216
5 -2 0 229 127 216
6 -2 0 229 127 216
-7 -1 0 229 127 216
-6 -1 0 229 127 216
-5 -1 0 229 127 216
-4 -1 0 229 127 216
-3 -1 0 229 127 216
-2 -1 0 76 153 178
-1 -1 0 76 153 178
0 -1 0 76 153 178
1 -1 0 76 153 178
2 -1 0 229 127 216
3 -1 0 229 127 216
4 -1 0 229 127 216
5 -1 0 229 127 216
6 -1 0 229 127 216
-7 0 0 229 127 216
-6 0 0 229 127 216
-5 0 0 229 127 216
-4 0 0 229 127 216
-3 0 0 229 127 216
-2 0 0 76 153 178
-1 0 0 76 153 178
0 0 0 76 153 178
1 0 0 76 153 178
2 0 0 229 127 216
3 0 0 229 127 216
4 0 0 229 127 216
5 0 0 229 127 216
6 0 0 229 127 216
-7 1 0 229 127 216
-6 1 0 229 127 216
-5 1 0 229 127 216
-4 1 0 229 127 216
-3 1 0 229 127 216
-2 1 0 76 153 178
-1 1 0 76 153 178
0 1 0 76 153 178
1 1 0 76 153 178
2 1 0 229 127 216
3 1 0 229 127 216
4 1 0 229 127 216
5 1 0 229 127 216
6 1 0 229 127 216
-6 2 0 229 127 216
-5 2 0 229 127 216
-4 2 0 229 127 216
-3 2 0 229 127 216
-2 2 0 229 127 216
-1 2 0 229 127 216
0 2 0 229 127 216
1 2 0 229 127 216
2 2 0 229 127 216
3 2 0 229 127 216
4 2 0 229 127 216
5 2 0 229 127 216
-5 3 0 229 127 216
-4 3 0 229 127 216
-3 3 0 229 127 216
-2 3 0 229 127 216
-1 3 0 229 127 216
0 3 0 229 127 216
1 3 0 229 127 216
2 3 0 229 127 216
3 3 0 229 127 216
4 3 0 229 127 216
-4 4 0 229 127 216
-3 4 0 229 127 216
-2 4 0 229 127 216
-1 4 0 229 127 216
0 4 0 229 127 216
1 4 0 229 127 216
2 4 0 229 127 216
3 4 0 229 127 216
-3 5 0 229 127 216
-2 5 0 229 127 216
-1 5 0 229 127 216
0 5 0 229 127 216
1 5 0 229 127 216
2 5 0 229 127 216
-2 6 0 229 127 216
-1 6 0 229 127 216
0 6 0 229 127 216
1 6 0 229 127 216
-2 -7 1 127 102 76
-1 -7 1 127 102 76
0 -7 1 127 102 76
1 -7 1 127 102 76
-3 -6 1 127 102 76
-2 -6 1 127 102 76
-1 -6 1 127 102 76
0 -6 1 127 102 76
1 -6 1 127 102 76
2 -6 1 127 102 76
-4 -5 1 127 102 76
-3 -5 1 127 102 76
-2 -5 1 127 102 76
-1 -5 1 127 102 76
0 -5 1 127 102 76
1 -5 1 127 102 76
2 -5 1 127 102 76
3 -5 1 127 102 76
-5 -4 1 127 102 76
-4 -4 1 127 102 76
-3 -4 1 127 102 76
-2 -4 1 127 102 76
-1 -4 1 127 102 76
0 -4 1 127 102 76
1 -4 1 127 102 76
2 -4 1 127 102 76
3 -4 1 127 102 76
4 -4 1 127 102 76
-6 -3 1 127 102 76
-5 -3 1 127 102 76
-4 -3 1 127 102 76
-3 -3 1 127 102 76
-2 -3 1 127 102 76
-1 -3 1 127 102 76
0 -3 1 127 102 76
1 -3 1 127 102 76
2 -3 1 127 102 76
3 -3 1 127 102 76
4 -3 1 127 102 76
5 -3 1 127 102 76
-7 -2 1 127 102 76
-6 -2 1 127 102 76
-5 -2 1 127 102 76
-4 -2 1 127 102 76
-3 -2 1 127 102 76
-2 -2 1 76 153 178
-1 -2 1 76 153 178
0 -2 1 76 153 178
1 -2 1 76 153 178
2 -2 1 127 102 76
3 -2 1 127 102 76
4 -2 1 127 102 76
5 -2 1 127 102 76
6 -2 1 127 102 76
-7 -1 1 127 102 76
-6 -1 1 127 102 76
-5 -1 1 127 102 76
-4 -1 1 127 102 76
-3 -1 1 127 102 76
-2 -1 1 76 153 178
-1 -1 1 76 153 178
0 -1 1 76 153 178
1 -1 1 76 153 178
2 -1 1 127 102 76
3 -1 1 127 102 76
4 -1 1 127 102 76
5 -1 1 127 102 76
6 -1 1 127 102 76
-7 0 1 127 102 76
-6 0 1 127 102 76
-5 0 1 127 102 76
-4 0 1 127 102 76
-3 0 1 127 102 76
-2 0 1 76 153 178
-1 0 1 76 153 178
0 0 1 76 153 178
1 0 1 76 153 178
2 0 1 127 102 76
3 0 1 127 102 76
4 0 1 127 102 76
5 0 1 127 102 76
6 0 1 127 102 76
-7 1 1 127 102 76
-6 1 1 127 102 76
-5 1 1 127 102 76
-4 1 1 127 102 76
-3 1 1 127 102 76
-2 1 1 76 153 178
-1 1 1 76 153 178
0 1 1 76 153 178
1 1 1 76 153 178
2 1 1 127 102 76
3 1 1 127 102 76
4 1 1 127 102 76
5 1 1 127 102 76
6 1 1 127 102 76
-6 2 1 127 102 76
-5 2 1 127 102 76
-4 2 1 127 102 76
-3 2 1 127 102 76
-2 2 1 127 102 76
-1 2 1 127 102 76
0 2 1 127 102 76
1 2 1 127 102 76
2 2 1 127 102 76
3 2 1 127 102 76
4 2 1 127 102 76
5 2 1 127 102 76
-5 3 1 127 102 76
-4 3 1 127 102 76
-3 3 1 127 102 76
-2 3 1 127 102 76
-1 3 1 127 102 76
0 3 1 127 102 76
1 3 1 127 102 76
2 3 1 127 102 76
3 3 1 127 102 76
4 3 1 127 102 76
-4 4 1 127 102 76
-3 4 1 127 102 76
-2 4 1 127 102 76
-1 4 1 127 102 76
0 4 1 127 102 76
1 4 1 127 102 76
2 4 1 127 102 76
3 4 1 127 102 76
-3 5 1 127 102 76
-2 5 1 127 102 76
-1 5 1 127 102 76
0 5 1 127 102 76
1 5 1 127 102 76
2 5 1 127 102 76
-2 6 1 127 102 76
-1 6 1 127 102 76
0 6 1 127 102 76
1 6 1 127 102 76
-2 -2 2 76 153 178
-1 -2 2 76 153 178
0 -2 2 76 153 178
1 -2 2 76 153 178
-2 -1 2 76 153 178
-1 -1 2 76 153 178
0 -1 2 76 153 178
1 -1 2 76 153 178
-2 0 2 76 153 178
-1 0 2 76 153 178
0 0 2 76 153 178
1 0 2 76 153 178
-2 1 2 76 153 178
-1 1 2 76 153 178
0 1 2 76 153 178
1 1 2 76 153 178
-1 -2 3 76 153 178
0 -2 3 76 153 178
1 -2 3 76 153 178
-1 -1 3 76 153 178
0 -1 3 76 153 178
1 -1 3 76 153 178
-1 0 3 76 153 178
0 0 3 76 153 178
1 0 3 76 153 178
-1 1 3 76 153 178
0 1 3 76 153 178
1 1 3 76 153 178
